<svg xmlns="http://www.w3.org/2000/svg" xml:space="preserve" style="enable-background:new 0 0 70 70" viewBox="0 0 70 70"><path d="M61.6 16.7h-7.3l-4-6.1C48.8 8.4 46.1 7 43.4 7H26.6c-2.7 0-5.4 1.4-6.9 3.7l-4 6.1H8.4c-4.6 0-8.4 3.7-8.4 8.4v29.5C0 59.3 3.7 63 8.4 63h53.3c4.6 0 8.4-3.7 8.4-8.4V25.1c-.1-4.6-3.8-8.4-8.5-8.4zM35 56.2c-10.4 0-18.9-8.4-18.9-18.9S24.6 18.5 35 18.5s18.9 8.4 18.9 18.9c0 10.3-8.5 18.8-18.9 18.8zm25.6-27.7h-3.3c-1.4-.1-2.4-1.2-2.4-2.6.1-1.3 1.1-2.3 2.4-2.4h3c1.4-.1 2.5 1 2.6 2.4 0 1.4-1 2.6-2.3 2.6z"/><path d="M35 26.9c-5.8 0-10.5 4.7-10.5 10.5S29.2 47.8 35 47.8s10.5-4.7 10.5-10.5S40.8 26.9 35 26.9z"/></svg>