<?xml version="1.0" encoding="UTF-8"?><svg id="Layer_2" xmlns="http://www.w3.org/2000/svg" viewBox="0 0 260.31839 15.958"><g id="Layer_1-2"><rect x="124.5178" y="2.337" width="11.28401" height="11.28401" transform="translate(32.4809 94.37385) rotate(-44.99999)" style="fill:#032055; stroke-width:0px;"/><rect x="140.93506" y="6.46367" width="3.03066" height="3.03066" transform="translate(36.08087 103.06477) rotate(-45.00008)" style="fill:#032055; stroke-width:0px;"/><rect x="147.71691" y="5.67437" width="4.60857" height="4.60857" transform="translate(38.29848 108.41794) rotate(-45.00003)" style="fill:#032055; stroke-width:0px;"/><rect x="156.77957" y="6.46367" width="3.03066" height="3.03066" transform="translate(40.72164 114.26855) rotate(-45.00008)" style="fill:#032055; stroke-width:0px;"/><rect x="164.25503" y="5.67461" width="4.60863" height="4.60858" transform="translate(34.92002 110.33497) rotate(-40.60944)" style="fill:#032055; stroke-width:0px;"/><polygon points="167.6844 9.378 260.31839 8.269 260.31839 7.689 167.6844 6.58 167.6844 9.378" style="fill:#032055; stroke-width:0px;"/><rect x="116.35356" y="6.46367" width="3.03066" height="3.03066" transform="translate(28.88103 85.68293) rotate(-45.00003)" style="fill:#032055; stroke-width:0px;"/><rect x="107.99382" y="5.67437" width="4.60857" height="4.60857" transform="translate(26.66386 80.32949) rotate(-45.00004)" style="fill:#032055; stroke-width:0px;"/><rect x="100.50907" y="6.46367" width="3.03066" height="3.03066" transform="translate(24.24028 74.47917) rotate(-45.00003)" style="fill:#032055; stroke-width:0px;"/><rect x="91.45546" y="5.67458" width="4.60858" height="4.60863" transform="translate(26.67437 73.96454) rotate(-49.39062)" style="fill:#032055; stroke-width:0px;"/><polygon points="0 7.6887 0 8.2687 92.634 9.3777 92.634 6.5797 0 7.6887" style="fill:#032055; stroke-width:0px;"/></g></svg>