<?xml version="1.0" encoding="UTF-8"?><svg id="Layer_1" xmlns="http://www.w3.org/2000/svg" viewBox="0 0 70.6 70.59999"><defs><style>.cls-1{fill:#4285f7;isolation:isolate;}.cls-1,.cls-2,.cls-3,.cls-4{fill-rule:evenodd;stroke-width:0px;}.cls-2{fill:#14a64b;}.cls-3{fill:#f7ba16;}.cls-5{fill:#fff;stroke:#ddd;stroke-miterlimit:10;stroke-width:.3px;}.cls-4{fill:#e83525;}</style></defs><circle class="cls-5" cx="35.34643" cy="35.30307" r="35.00015" transform="translate(-14.61031 35.33373) rotate(-45)"/><path class="cls-4" d="m57.18772,19.47402l.52945.2853c4.51017,2.42786,6.21377,8.10535,3.7861,12.61551l-8.47469,15.74268c-1.4887,2.76444-4.96727,3.80871-7.73191,2.32002l-11.90568-6.40897,11.18045-20.76844c2.42845-4.51017,8.10554-6.21435,12.61629-3.7861Z"/><path class="cls-3" d="m48.39127,28.00683l-7.4737-4.31341c-4.12582-2.29018-6.46241-2.44209-8.15626.2504l-11.02287,19.08981c-3.07803,5.32881-1.24553,12.1434,4.0827,15.21479,4.64667,2.68254,10.58527,1.09049,13.26743-3.5556l11.23348-19.45954c1.46667-2.53063.59985-5.76661-1.93078-7.22644Z"/><path class="cls-2" d="m44.74401,12.68811l.78219.42121c4.26796,2.2974,7.52949,4.01387,9.83117,5.61626-4.03259-1.00703-8.1149.97797-10.47022,4.61742-15.54806,24.02275-10.21652,27.00112-30.12653,16.02836l11.35517-21.09235c3.58583-6.66052,11.9683-9.17614,18.62822-5.5909Z"/><path class="cls-1" d="m29.41808,24.55693l-5.67476-3.26913c-2.53063-1.45652-5.76329-.59322-7.22331,1.93078l-6.80796,11.76489c-3.35143,5.78922-1.36428,13.19761,4.44211,16.53928l4.32003,2.48735,5.23989,3.01873,2.27341,1.30851c-4.03688-2.70244-5.31886-8.11647-2.85063-12.38053l1.76346-3.04486,6.45538-11.15509c1.45652-2.51737.58971-5.74398-1.93761-7.19992Z"/></svg>