<?xml version="1.0" encoding="UTF-8"?><svg id="Layer_2" xmlns="http://www.w3.org/2000/svg" viewBox="0 0 1579.89088 340.82175"><g id="Layer_1-2"><path d="M209.01887,235.30646c-.21307,1.98286.42676,4.18688,3.839,4.18688,7.0388,0,17.91597-8.37375,26.44751-19.39256,3.19917-4.62793,12.15747-1.98286,6.39834,6.83194-11.30394,16.96865-40.52386,37.68312-61.85207,32.83529-13.65021-2.86497-15.14357-16.96865-12.37054-28.20736l28.79315-103.57484c-10.45104,28.64841-37.75145,85.06314-68.46411,87.7082-33.69938,2.64382-25.16784-61.92475-29.43361-97.18396-11.09087,40.54808-28.40057,102.04808-28.40057,102.92894-7.46494,22.47743-19.40933,38.78512-42.44398,38.78512-9.38444,0-22.82158-8.5949-22.82158-14.98454,11.09087,1.10201,23.24834-5.51003,32.41971-31.29348l21.14932-72.51756,15.56971-63.68647c.21307-.22115.21307-.66095.21307-1.32191-16.20954,7.05184-27.94025,20.71447-37.96452,33.93605-5.33236,7.05184-10.02427,16.5276-10.02427,23.57944,0,7.49289,8.53153,15.64674,13.01037,9.03595,6.8251,0,7.46494,27.98746-19.40933,27.98746-13.86328,0-23.67448-12.78177-23.67448-27.76756C.85353,92.94773,67.18506,61.21445,97.25788,61.21445c17.06307,0,28.79377,13.66263,33.27261,31.73328,2.34564,9.47576,4.26577,28.64841,5.33174,45.39591l1.9195,31.51338c0,3.74582.85353,10.57776,5.11929,10.57776,26.87365,0,56.09357-119.66139,91.92552-119.66139,12.79668,0,19.83548,8.37375,17.27614,17.84951l-43.08382,156.68355Z" style="fill:#0d0f85; stroke-width:0px;"/><path d="M331.00976,229.32192c-10.23734,16.9674-31.77925,30.85118-52.25456,30.85118-28.58008,0-43.29689-22.91848-39.88402-42.53095,6.18527-35.9214,29.21992-53.32986,53.96099-53.32986,12.37054,0,26.87365,9.69566,24.52739,24.68144-1.70643,15.64674-17.27614,25.5623-31.56618,27.98622-4.26577.8821-8.95768.44105-12.37054-.43981-4.47884,22.91848,14.50373,26.88545,18.55581,26.88545,11.7307,0,26.23444-11.01881,33.05954-20.93562,3.41224-3.96697,11.73008-1.98411,5.97158,6.83194ZM275.98279,206.40219c9.17075-1.76172,21.54129-10.35661,22.18112-22.03638.21369-3.74582-.42614-5.50878-1.9195-5.50878-3.41224,0-13.43714,5.50878-20.26162,27.54517Z" style="fill:#0d0f85; stroke-width:0px;"/><path d="M453.43175,228.43982c-7.46556,11.67977-35.19211,35.2592-59.72012,31.07233-13.65021-2.42391-14.50311-16.08655-12.79668-23.13839l13.22344-47.82107c.63983-2.42391.8529-7.49289-3.41286-7.49289-5.11867,0-12.58361,5.95108-19.40871,13.66387l-13.01037,47.81983c-.8529,2.86497,0,4.40802,1.0666,5.94984l2.13257,1.98411c-1.9195,1.76172-4.05208,3.30477-6.39834,4.62668-4.05208,2.42516-10.02427,4.62793-17.06245,4.62793-12.15747,0-19.19564-8.15385-16.85-16.96865l16.85-61.92351c.8529-2.64506,0-4.40678-.85353-5.94984l-2.13257-1.98286c1.9195-1.54306,4.05208-3.08611,6.39834-4.62793,4.0527-2.42391,9.59813-4.84907,17.06307-4.84907,10.45042,0,17.06245,5.95108,17.27552,13.66387,9.17137-7.7128,20.26224-13.66387,34.12552-13.66387,10.02489,0,26.44751,6.61203,22.39481,20.71571l-14.29004,52.44776c-.21307,1.98286.21369,4.18688,3.62593,4.18688,9.8112,0,19.62241-10.79767,25.80768-18.95151,3.41224-3.96697,11.7307-2.42391,5.9722,6.61079Z" style="fill:#0d0f85; stroke-width:0px;"/><path d="M575.00022,228.65972c-7.89108,11.67977-35.19149,35.2592-59.93257,31.07233-10.02427-1.54181-12.7973-9.25461-13.43714-16.08655-9.59751,8.59365-20.04855,16.30769-35.40519,16.30769-13.01037,0-25.38091-16.30769-20.26224-35.9214l11.7307-42.972c.63983-2.42391.42676-4.62668-1.0666-6.16974l-2.13257-1.98286c1.9195-1.54306,4.0527-3.08611,6.39834-4.62793,4.0527-2.42391,9.59813-4.62793,17.06307-4.62793,12.15685,0,19.19564,8.37375,16.84938,17.18855l-14.92988,53.99081c-.63983,2.64382-1.0666,7.7128,3.41224,7.7128,5.75913,0,14.7168-7.93394,22.18174-16.96865l12.15747-44.51506c.63983-2.42391.42676-4.62668-1.0666-6.16974l-2.13257-1.98286c1.9195-1.54306,4.05208-3.08611,6.39834-4.62793,4.05208-2.42391,9.59751-4.62793,17.06245-4.62793,12.15747,0,19.19564,8.37375,16.85,17.18855l-15.35664,55.97368c-.21307,1.98411.21307,4.18688,3.62593,4.18688,8.10477,0,19.40871-10.79767,25.80705-19.17142,3.41286-4.62793,11.30456-1.98411,6.18527,6.83069Z" style="fill:#0d0f85; stroke-width:0px;"/><path d="M1135.6629,235.30646c-.21369,1.98286.42614,4.18688,3.839,4.18688,7.03817,0,17.9166-8.37375,26.44813-19.39256,3.19917-4.62793,12.15685-1.98286,6.39834,6.83194-11.30456,16.96865-40.52448,37.68312-61.85269,32.83529-13.65021-2.86497-15.14357-16.96865-12.37054-28.20736l28.79377-103.57484c-10.45104,28.64841-37.75145,85.06314-68.46473,87.7082-33.69875,2.64382-25.16722-61.92475-29.43361-97.18396-11.09087,40.54808-28.1297,102.36351-28.1297,103.24437-7.46556,22.47743-19.40871,38.78512-42.44398,38.78512-9.38382,0-22.82158-8.5949-22.82158-14.98454,11.09087,1.10201,23.24772-5.51003,32.41909-31.29348l20.87908-72.83299,15.56971-63.68647c.21369-.22115.21369-.66095.21369-1.32191-16.20954,7.05184-27.94025,20.71447-37.96514,33.93605-5.33236,7.05184-10.02489,16.5276-10.02489,23.57944,0,7.49289,8.53153,15.64674,13.01037,9.03595,6.82572,0,7.46556,27.98746-19.40871,27.98746-13.86266,0-23.67386-12.78177-23.67386-27.76756.85228-50.24374,67.18382-81.97703,97.25726-81.97703,17.06307,0,28.79377,13.66263,33.27261,31.73328,2.34564,9.47576,4.26515,28.64841,5.33236,45.39591l1.9195,31.51338c0,3.74582.85228,10.57776,5.11867,10.57776,26.87303,0,56.09419-119.66139,91.9249-119.66139,12.79792,0,19.8361,8.37375,17.27676,17.84951l-43.08382,156.68355Z" style="fill:#0d0f85; stroke-width:0px;"/><path d="M1227.79403,260.53953c-5.75975,0-15.35726-4.40802-15.35726-14.10368-6.82448,7.27174-13.01037,14.10368-22.18174,14.10368-22.82158,0-27.51286-24.24163-24.10124-43.8541,6.18589-35.92016,33.27261-53.32986,58.01369-53.32986,17.06307,0,25.5946,5.72993,30.49958,11.23872,2.77303,3.52592,4.26639,7.27299,4.90622,11.01881l-13.8639,50.6848c-.21369,1.98411.42614,4.18812,3.839,4.18812,6.82572,0,17.48921-8.15385,25.38091-18.73161,3.41286-4.84907,11.51701-2.20401,5.9722,6.61079-9.59751,16.5276-32.63278,32.17433-53.10747,32.17433ZM1214.78366,228.36519l9.17013-33.49624c2.34689-9.6969,4.26639-15.64674-1.9195-14.54473-6.18465,1.10201-17.48921,7.27299-22.60788,31.07233-3.19917,14.98578-.63983,21.15552,3.839,22.91848,4.0527,1.54306,6.61203-1.76296,11.51826-5.94984Z" style="fill:#0d0f85; stroke-width:0px;"/><path d="M1457.70939,229.02615c-7.46556,11.67977-35.40581,35.2592-59.93319,31.07233-13.65021-2.42391-14.50373-16.08655-12.79792-23.13839l13.22407-47.82107c.63983-2.42391,1.06598-7.49289-3.41286-7.49289-5.11867,0-12.58299,5.95108-19.40871,13.66387l-13.01037,47.81983c-.85228,2.86497,0,4.40802,1.06722,5.94984l2.13195,1.98411c-1.9195,1.76172-4.05145,3.30477-6.39834,4.62668-4.0527,2.42516-10.02365,4.62793-17.06307,4.62793-12.15685,0-19.19502-8.15385-16.84938-16.96865l14.92988-54.21072c.63983-2.42391.85353-7.49289-3.41162-7.49289-5.75975,0-14.71743,7.49289-22.18174,16.96865l-12.15809,44.51506c-.85228,2.86497,0,4.40802,1.06722,5.94984l2.13319,1.98411c-1.92074,1.76172-4.0527,3.30477-6.39958,4.62668-4.05145,2.42516-10.02365,4.62793-17.06183,4.62793-12.15809,0-19.19626-8.15385-16.84938-16.96865l17.06183-61.92351c.63983-2.42391.21369-4.40678-1.06598-5.94984l-2.13319-1.98286c1.9195-1.54306,4.0527-3.08611,6.39834-4.62793,4.0527-2.42391,9.59875-4.84907,17.06307-4.84907,11.09087,0,18.12905,7.05184,17.06307,15.20569,9.59751-8.15385,20.90207-15.20569,36.25809-15.20569,10.02489,0,19.8361,3.30602,22.60788,14.54473,9.38506-7.9327,20.90207-14.54473,35.40581-14.54473,10.02365,0,26.44689,6.39089,22.39419,20.71571l-14.29004,52.44776c-.21245,1.98286.21369,4.18688,3.62655,4.18688,9.8112,0,19.40871-10.57776,25.80705-18.95151,3.41286-3.96697,11.30456-2.20401,6.18589,6.61079Z" style="fill:#0d0f85; stroke-width:0px;"/><path d="M1578.21064,229.24605c-7.8917,11.67977-35.19211,35.2592-59.93319,31.07233-10.02365-1.54181-12.79668-9.25461-13.43651-16.08655-9.59751,8.59365-20.04855,16.30769-35.40581,16.30769-13.01037,0-25.37967-16.30769-20.261-35.9214l11.7307-42.972c.63983-2.42391.42614-4.62668-1.06722-6.16974l-2.13195-1.98286c1.9195-1.54306,4.05145-3.08611,6.39834-4.62793,4.05145-2.42391,9.59751-4.62793,17.06183-4.62793,12.15809,0,19.19626,8.37375,16.85062,17.18855l-14.93112,53.99081c-.63983,2.64382-1.06598,7.7128,3.41286,7.7128,5.75851,0,14.71743-7.93394,22.18174-16.96865l12.15685-44.51506c.63983-2.42391.42738-4.62668-1.06598-6.16974l-2.13319-1.98286c1.9195-1.54306,4.0527-3.08611,6.39834-4.62793,4.0527-2.42391,9.59875-4.62793,17.06307-4.62793,12.15809,0,19.19626,8.37375,16.84938,17.18855l-15.35602,55.97368c-.21369,1.98411.21369,4.18688,3.62531,4.18688,8.10539,0,19.40871-10.79767,25.8083-19.17142,3.41162-4.62793,11.30332-1.98411,6.18465,6.83069Z" style="fill:#0d0f85; stroke-width:0px;"/><polygon points="692.9785 294.08346 692.9785 329.84463 713.03965 319.47735 734.7537 340.82175 734.7537 299.96247 692.9785 294.08346" style="fill:#f47537; stroke-width:0px;"/><path d="M710.21749,235.68915h-.01001v-.34003c0,.12,0,.22998.01001.34003Z" style="fill:#0d0f85; stroke-width:0px;"/><path d="M650.98138,34.36155V6.00984c0-4.75063,5.25865-7.61701,9.25132-5.04271l74.98772,48.03434v12.82727l-84.23904-27.4672Z" style="fill:#017e02; stroke-width:0px;"/><path d="M851.02393,34.36155V6.00984c0-4.75063-5.25865-7.61701-9.25132-5.04271l-73.84049,48.00383v12.10372l83.09181-26.71314Z" style="fill:#92282a; stroke-width:0px;"/><path d="M896.91626,27.40401v232.95001c0,3.47003-2.22998,6.53998-5.53003,7.60999l-135.8858,44.03825c-2.55078.82667-5.29748.82667-7.84827,0l-135.88586-44.03825c-3.28998-1.07001-5.53003-4.13995-5.53003-7.60999V27.40401c0-4.07996,3.98004-6.95996,7.85004-5.70996l137.48999,44.56,137.48999-44.56c3.88-1.25,7.84998,1.63,7.84998,5.70996Z" style="fill:#0d0f85; stroke-width:0px;"/><path d="M819.77546,185.95406c0,46.02997-30.53003,83.33997-68.20001,83.33997s-68.20001-37.31-68.20001-83.33997c0-39.14001,22.07001-71.98004,51.84003-80.93005v-59.75995h32.71997v59.75995c29.77002,8.95001,51.84003,41.79004,51.84003,80.93005Z" style="fill:#fff; stroke-width:0px;"/><path d="M792.65383,156.37915v78.31c-.04999,4.34998-3.58997,7.85999-7.94995,7.85999-4.39001,0-7.95001-3.56-7.95001-7.95001,0-.14001,0-.27002.01001-.40997v-81.80005c0-4.08997-3.77002-7.39996-8.42004-7.39996-4.66998,0-8.44,3.31-8.44,7.39996v82.49005c0,4.54999-3.69,8.23999-8.22998,8.23999-4.54999,0-8.23999-3.69-8.23999-8.23999v-.19h-.02002v-82.30005c0-4.08997-3.76996-7.39996-8.42999-7.39996s-8.42999,3.31-8.42999,7.39996v81.28003c.02002.21997.03003.45001.03003.67999,0,4.44-3.61005,8.03998-8.05005,8.03998-4.32001,0-7.84998-3.41998-8.02997-7.69995-.01001-.11005-.01001-.22003-.01001-.34003v-77.96997c0-16.03003,12.01001-29.46002,28.48999-34.14001,0,0,15.17435-3.07935,25.19,0,16.47998,4.67999,28.47998,18.10999,28.47998,34.14001Z" style="fill:#0d0f85; stroke-width:0px;"/></g></svg>