<?xml version="1.0" encoding="UTF-8"?><svg id="Layer_1" xmlns="http://www.w3.org/2000/svg" viewBox="0 0 70.6 70.59999"><defs><style>.cls-1{fill:#00afef;}.cls-1,.cls-2,.cls-3,.cls-4{stroke-width:0px;}.cls-1,.cls-3,.cls-4{fill-rule:evenodd;}.cls-2{fill:#ddd;}.cls-3{fill:#fff;}.cls-4{fill:#334690;}</style></defs><g id="paytm"><path class="cls-3" d="m35.29966,70.45042C15.91831,70.45042.15024,54.68187.15024,35.30003S15.91831.15013,35.29966.15013s35.15039,15.76807,35.15039,35.1499-15.76855,35.15039-35.15039,35.15039Z"/><path class="cls-2" d="m35.2998.3c19.27749,0,35.0002,15.7227,35.0002,35.0002s-15.72271,34.99979-35.0002,34.99979S.3,54.57728.3,35.3002,16.0227.3,35.2998.3m0-.3C15.83542,0,0,15.8356,0,35.3002s15.83542,35.29979,35.2998,35.29979,35.3002-15.83542,35.3002-35.29979S54.7644,0,35.2998,0h0Z"/><path class="cls-1" d="m63.5533,55.95837c-2.18508,2.98251-4.82988,5.60704-7.83129,7.76734H14.87758c-3.00141-2.1603-5.64621-4.78483-7.83129-7.76734h56.50702Z"/><path class="cls-4" d="m55.72201,63.72571c-5.74796,4.13694-12.79977,6.57469-20.42221,6.57469s-14.67426-2.43775-20.42222-6.57469h40.84443Z"/><path class="cls-4" d="m7.55599,29.9921c.00082-.38782.26238-.58147.5827-.58147h5.6725c1.7407.19761,2.95608,1.08419,3.07494,3.41402v3.15136c0,.46821-.02724.86179-.16228,1.31672-.45151,1.51748-1.53528,2.27095-3.1556,2.37694h-2.43282v3.85744c0,.28991-.24335.43357-.53805.43357h-2.55455c-.31059,0-.5397-.1731-.53846-.52053l.05163-13.44806h0Zm3.48277,2.81831v3.41101h1.68359c.37769,0,.6891-.31182.6891-.69102v-2.0291c0-.38043-.31141-.69089-.6891-.69089h-1.68359Z"/><path class="cls-4" d="m19.68185,29.42762h3.96453c2.32052.13558,3.57712,1.35411,3.54371,3.88073v9.35616c0,.72553-.7321,1.27523-1.35903,1.27523h-5.19703c-1.57637,0-2.61837-1.22866-2.87802-2.43432-.24842-1.15677-.06327-2.5562-.06327-3.7383,0-1.82369,1.20922-3.63258,3.2223-3.63258h2.11565c.6157-.033.58817-1.37807,0-1.33082h-3.30611c-.3351,0-.56996-.17775-.60173-.51902v-2.45089c0-.31292.25856-.40618.55901-.40618h0Zm2.12181,7.92414c-.31525,0-.57188.25855-.57188.57489v2.32833c0,.31648.25663.57503.57188.57503h1.33685c.31483,0,.5738-.25855.5738-.57503v-2.32833c0-.31634-.25897-.57489-.5738-.57489h-1.33685Z"/><path class="cls-4" d="m28.40711,30.08728v5.91051c.14366,1.85285,1.8063,3.23983,3.61642,3.23983h1.67414c.69225,0,.64953,1.16334,0,1.16334h-3.62176c-.39248,0-.53491.20542-.53491.5512v2.60208c0,.26197.21158.4589.48875.4589h3.35555c2.79763,0,4.39152-1.34274,4.3907-4.35126v-9.80452c0-.31908-.20294-.4437-.39673-.4437h-2.81201c-.26006,0-.41152.28183-.41152.48875v5.373c0,.2302-.12886.36564-.33579.36564h-1.3311c-.3058,0-.47355-.16543-.47355-.45808v-5.18772c0-.34401-.13818-.59667-.5182-.59667h-2.70451c-.30785,0-.3855.3047-.3855.6887Z"/><path class="cls-1" d="m39.19065,32.51653v-2.55551c0-.27485.22432-.49958.49806-.49958h.61515c1.58458-.32962,1.96159-1.25961,2.93048-2.30422.59583-.64446,1.11841-.81482,1.50309-.13092v2.43514h1.45257c.27485,0,.49889.22473.49889.49958v2.55551c0,.27293-.22514.49917-.49889.49917h-1.45298v10.47144c0,.27512-.22432.49834-.49848.49834h-2.55661c-.27403,0-.49724-.22322-.49724-.49834v-10.47144h-1.49598c-.27252,0-.49806-.22473-.49806-.49917Z"/><path class="cls-1" d="m57.29413,43.3202c0,.34113-.28183.61953-.62418.61953h-2.39324c-.34427,0-.62488-.27841-.62488-.61953v-9.07625c.01904-1.03913-2.07416-1.20031-2.07416,0v9.07625c0,.34113-.2806.61953-.6246.61953h-2.39241c-.34346,0-.6257-.27841-.6257-.61953v-13.32577c0-.34318.28224-.62186.6257-.62186h2.39241c.34401,0,.6246.27868.6246.62186v.18406c1.39943-1.33931,3.82403-1.12815,5.11446.26348,2.42884-2.78599,6.58949-.30388,6.39693,2.75121,0,3.37718-.02958,6.72177-.02958,10.12702,0,.34113-.2821.61953-.62378.61953h-2.39392c-.34359,0-.62501-.27841-.62501-.61953v-9.01299c-.13585-1.33342-2.14934-1.02133-2.147,0,0,3.173.02437,5.81082.02437,9.01299Z"/></g></svg>