<?xml version="1.0" encoding="UTF-8"?><svg id="Layer_1" xmlns="http://www.w3.org/2000/svg" viewBox="0 0 70.6 70.59999"><defs><style>.cls-1{fill:#5f259f;}.cls-1,.cls-2{stroke-width:0px;}.cls-2{fill:#fff;}</style></defs><g id="phonepay"><path class="cls-1" d="m43.34103,1.24454C24.53261-3.1964,5.68528,8.45075,1.24434,27.25917c-4.44094,18.80842,7.20621,37.65575,26.01463,42.09669,18.80628,4.44043,37.65194-7.20358,42.0954-26.00915,4.44397-18.80771-7.20015-37.65691-26.00785-42.10088-.00183-.00043-.00366-.00086-.00548-.00129Z"/><path class="cls-2" d="m51.18035,26.16971c-.03938-1.38198-1.1586-2.48865-2.54094-2.51246h-4.69448l-10.75058-12.34579c-1.02656-1.15343-2.6267-1.61061-4.10767-1.17362l-3.72596,1.17362c-.45294.15357-.69562.64524-.54205,1.09818.03319.09788.08363.18904.14895.26915l11.74189,11.14369h-17.7866c-.51237-.02267-.94611.37431-.96878.88669-.00129.02917-.00121.05837.00026.08753v1.95413c.02434,1.39312,1.14783,2.5166,2.54094,2.54094h2.74035v9.38896c0,7.03602,3.71456,11.14369,9.97007,11.14369,1.87327.05753,3.73796-.27621,5.47499-.97992v6.2669c-.02217,1.70524,1.34223,3.10558,3.04747,3.12775.02676.00035.05352.00035.08028,0h2.73465c.62908-.04392,1.1297-.54453,1.17362-1.17362v-27.96177h4.48368c.51204.02915.95077-.36232.97992-.87436.002-.03516.002-.0704,0-.10555v-1.95413Zm-12.5338,16.81238c-1.23311.53937-2.56829.80563-3.91396.78052-3.12775,0-4.68878-1.56103-4.68878-5.08188v-9.38326h8.60274v13.68463Z"/></g></svg>